# xmcd
#
# Track frame offsets:
# 197
# 22570
# 39727
#
# Disc length: 730 seconds
#
#
# Revision: 0
# Processed by: cddbd v1.4PL0 Copyright (c) Steve Scherf et al.
# Submitted via: FreeRIP 2.21 
#
DISCID=1502d803
DTITLE=Medicine - Never Click
DYEAR=1900
DGENRE=Shoegazer
TTITLE0=Never Click
TTITLE1=Whle
TTITLE2='Til I DIe
EXTD=
EXTT0=
EXTT1=
EXTT2=
PLAYORDER=
